<?xml version="1.0" encoding="UTF-8"?>
<svg id="Ebene_2" xmlns="http://www.w3.org/2000/svg" viewBox="0 0 655.021 869.463">
  <g id="Ebene_1-2" data-name="Ebene_1">
    <g>
      <path d="M137.188,810.367c-1.083-.045-2.159-.116-3.233-.193.267.018.531.041.8.056.809.057,1.62.102,2.434.137Z" style="fill: none;"/>
      <path d="M141.392,810.458c-1.197-.003-2.389-.029-3.577-.071.569.021,1.138.043,1.71.054.617.008,1.242.015,1.867.017Z" style="fill: none;"/>
      <path d="M179.528,865.051c3.767-.897,7.482-1.929,11.141-3.092-3.658,1.163-7.375,2.194-11.141,3.092Z" style="fill: none;"/>
      <path d="M327.465,371.81c24.43,0,44.3-19.87,44.3-44.3s-19.87-44.3-44.3-44.3-44.3,19.87-44.3,44.3,19.87,44.3,44.3,44.3Z" style="fill: none;"/>
      <path d="M131.375,809.96c.49.06.99.1,1.49.14.011.001.025.001.037.003-1.099-.09-2.189-.204-3.277-.328.48.06.96.114,1.44.155.1.02.21.03.31.03Z" style="fill: none;"/>
      <path d="M128.087,809.588c-.498-.064-.991-.139-1.486-.209.315.045.627.099.944.141.18.025.361.044.542.068Z" style="fill: none;"/>
      <path d="M629.271,200.02c-16.497-39.003-40.108-74.025-70.177-104.094s-65.091-53.679-104.094-70.177C414.605,8.663,371.711,0,327.511,0s-87.095,8.663-127.491,25.749c-39.003,16.497-74.025,40.108-104.094,70.177s-53.68,65.091-70.177,104.094C8.663,240.416,0,283.309,0,327.51v419.121c0-.987.06-1.959.156-2.921-.096.966-.151,1.938-.151,2.92,0,33.83,15.43,65.31,43.45,88.65,26.48,22.04,61.36,34.18,98.22,34.18h.04c1.582,0,3.159-.029,4.734-.074-1.574.045-3.15.076-4.732.077.016,0,.031,0,.047,0,1.635,0,3.265-.033,4.892-.08.166-.005.333-.01.499-.016,1.381-.044,2.757-.112,4.131-.191.206-.012.413-.016.618-.029.054-.003.108-.004.162-.007.363-.023.724-.054,1.086-.08.396-.027.792-.057,1.188-.087.327-.025.656-.045.983-.072.285-.023.568-.052.853-.078.587-.051,1.173-.107,1.758-.165.194-.019.389-.034.582-.054.19-.019.379-.042.568-.062.776-.082,1.551-.169,2.325-.262.094-.011.188-.021.282-.032.088-.011.176-.023.263-.034,29.245-3.597,56.392-14.972,77.959-32.939,9.866-8.219,18.156-17.456,24.771-27.446.06-.089.122-.178.181-.268.074-.113.144-.228.218-.341.435-.667.864-1.336,1.284-2.009.094-.15.194-.298.287-.449.1-.162.196-.325.294-.488.391-.639.773-1.282,1.151-1.927.088-.149.179-.297.266-.446.049-.085.097-.171.145-.256.579-1.005,1.147-2.015,1.694-3.034.052-.097.104-.195.156-.292.082-.154.158-.31.239-.463.324-.614.641-1.231.953-1.85.079-.157.164-.312.242-.47.06-.12.121-.24.18-.361.198-.402.384-.81.578-1.213.168-.354.339-.706.504-1.06.107-.231.222-.459.328-.69.019-.041.038-.081.056-.121.033-.072.062-.145.095-.217.038-.083.072-.167.109-.25.401-.889.795-1.78,1.171-2.677.01-.022.02-.044.029-.067.38-.91.75-1.83,1.11-2.75.032-.083.063-.166.095-.249.145-.38.287-.764.435-1.141.053-.145.1-.293.153-.438.021-.057.039-.114.059-.171.431-1.191.855-2.385,1.248-3.591.393-1.206.756-2.416,1.112-3.634.011-.038.023-.074.034-.111.049-.169.105-.335.154-.505.073-.261.138-.523.209-.785.014-.051.027-.102.041-.153.095-.35.188-.7.28-1.051.014-.053.028-.104.042-.157.14-.538.277-1.077.409-1.618.077-.316.15-.634.224-.952.017-.074.035-.148.052-.223.011-.048.023-.095.034-.143.128-.554.254-1.108.373-1.665.005-.025.01-.05.015-.074.078-.368.152-.736.227-1.104.009-.044.018-.087.027-.131.112-.558.224-1.116.328-1.676.039-.209.074-.42.11-.63.035-.201.071-.402.106-.604.007-.041.014-.081.021-.122.094-.545.188-1.09.274-1.637.028-.179.052-.36.078-.54.041-.282.083-.563.123-.846.005-.036.01-.071.015-.107.071-.502.146-1.003.21-1.506.077-.607.143-1.217.211-1.826.043-.395.093-.789.132-1.185.033-.331.056-.663.085-.994.052-.588.108-1.175.152-1.764,0-.014.002-.028.003-.042.006-.074.013-.147.019-.221.075-1.053.138-2.108.184-3.167-.045,1.058-.108,2.112-.184,3.164.075-1.052.135-2.106.18-3.164.07-1.57.12-3.15.12-4.74,0-.55-.02-1.1-.05-1.64v-.04c-.03-.54-.08-1.06-.14-1.59v-203c14.56,3.03,29.54,4.59,44.75,4.59,58.08,0,112.69-22.62,153.76-63.68,41.07-41.07,63.69-95.68,63.69-153.76s-22.62-112.69-63.69-153.76c-41.07-41.06-95.68-63.68-153.76-63.68s-112.68,22.62-153.75,63.68c-40.76,40.76-63.34,94.85-63.68,152.43v.01c0,.13-.01.25-.01.38v394.7c0,16.37,13.21,29.65,29.5,29.65s29.5-13.28,29.5-29.65v-394.7c.51-86.94,71.39-157.5,158.44-157.5s158.45,71.07,158.45,158.44-71.08,158.44-158.45,158.44c-15.53,0-30.55-2.26-44.75-6.44v-58.7c13.44,6.41,28.46,10,44.31,10,56.96,0,103.3-46.34,103.3-103.3s-46.34-103.3-103.3-103.3-103.3,46.34-103.3,103.3h-.01v420.49c-.43,15.53-8.25,30.39-22.17,41.98-15.85,13.2-37.25,20.47-60.27,20.48h-.04c-.033,0-.066,0-.1,0-1.363-.002-2.721-.029-4.072-.082-.036-.001-.073-.002-.11-.003-1.406-.057-2.806-.141-4.198-.252-.007,0-.014,0-.021-.001h-.002c-2.322-.186-4.619-.454-6.892-.789-.25-.036-.499-.075-.749-.112-1.088-.169-2.171-.35-3.246-.552-.008-.001-.017-.003-.025-.005-15.451-2.914-29.514-9.302-40.777-18.684-14.313-11.925-22.196-27.319-22.196-43.348,0-.629-.026-1.252-.065-1.871v1.74l-.223-418.989c0-71.721,27.93-139.151,78.645-189.866,50.716-50.715,118.145-78.645,189.866-78.645s139.15,27.93,189.865,78.645c50.715,50.716,78.645,118.145,78.645,189.866s-27.93,139.15-78.645,189.865-118.144,78.645-189.865,78.645c-15.012,0-29.832-1.24-44.354-3.641v59.652c14.606,1.973,29.403,2.989,44.354,2.989,44.2,0,87.095-8.663,127.49-25.749,39.003-16.497,74.025-40.108,104.094-70.177s53.68-65.09,70.177-104.094c17.086-40.396,25.749-83.29,25.749-127.49s-8.663-87.095-25.749-127.491ZM327.465,283.21c24.43,0,44.3,19.87,44.3,44.3s-19.87,44.3-44.3,44.3-44.3-19.87-44.3-44.3,19.87-44.3,44.3-44.3ZM190.669,861.959c-3.658,1.163-7.374,2.194-11.141,3.092,3.766-.898,7.483-1.929,11.141-3.092ZM141.392,810.458c-.625-.002-1.25-.009-1.867-.017-.572-.011-1.141-.033-1.71-.054,1.188.042,2.38.067,3.577.071ZM137.188,810.367c-.814-.036-1.625-.081-2.434-.137-.268-.015-.533-.038-.8-.056,1.074.077,2.15.148,3.233.193ZM132.901,810.103c-.012-.001-.025-.001-.037-.003-.5-.04-1-.08-1.49-.14-.1,0-.21-.01-.31-.03-.48-.041-.96-.095-1.44-.155,1.088.124,2.179.238,3.277.328ZM128.087,809.588c-.181-.024-.363-.043-.542-.068-.316-.042-.628-.096-.944-.141.495.071.989.146,1.486.209Z" style="fill: #fff;"/>
    </g>
  </g>
</svg>