<?xml version="1.0" encoding="UTF-8"?>
<svg id="Ebene_2" xmlns="http://www.w3.org/2000/svg" viewBox="0 0 458.072 132.499">
  <g id="Ebene_1-2" data-name="Ebene_1">
    <g>
      <path d="M2,11.721C2,5.242,5.24,2,11.722,2h42.774c6.125,0,11.724,1.061,16.792,3.182,5.065,2.121,9.396,5.125,12.991,9.014,3.593,3.889,6.391,8.484,8.396,13.787,2.002,5.303,3.004,11.136,3.004,17.498s-1.002,12.227-3.004,17.588c-2.005,5.363-4.803,9.986-8.396,13.875-3.596,3.889-7.926,6.924-12.991,9.103-5.068,2.182-10.666,3.27-16.792,3.27h-21.564v29.341c0,6.482-3.242,9.722-9.721,9.722h-11.489c-6.482,0-9.722-3.239-9.722-9.722V11.721ZM48.132,62.803c5.419,0,9.457-1.618,12.108-4.861,2.651-3.238,3.977-7.393,3.977-12.461s-1.298-9.16-3.888-12.283c-2.593-3.121-6.482-4.685-11.666-4.685h-15.731v34.29h15.201Z" style="fill: #1d1d1b; stroke: #1d1d1b; stroke-miterlimit: 10; stroke-width: 4px;"/>
      <path d="M109.642,11.721c0-6.479,3.24-9.721,9.722-9.721h11.489c6.479,0,9.721,3.242,9.721,9.721v70.172c0,6.716,1.972,11.783,5.921,15.2,3.947,3.419,9.279,5.126,15.996,5.126s12.047-1.707,15.996-5.126c3.947-3.417,5.921-8.484,5.921-15.2V11.721c0-6.479,3.239-9.721,9.721-9.721h11.489c6.479,0,9.722,3.242,9.722,9.721v70.172c0,7.069-1.268,13.582-3.8,19.531-2.535,5.951-6.098,11.076-10.693,15.377-4.596,4.303-10.136,7.661-16.615,10.074-6.482,2.414-13.671,3.624-21.564,3.624-8.015,0-15.289-1.21-21.829-3.624-6.54-2.413-12.107-5.771-16.703-10.074-4.595-4.301-8.161-9.426-10.693-15.377-2.535-5.949-3.8-12.462-3.8-19.531V11.721Z" style="fill: #1d1d1b; stroke: #1d1d1b; stroke-miterlimit: 10; stroke-width: 4px;"/>
      <path d="M231.598,115.652c0-2.356.293-4.478.884-6.363.588-1.884,1.591-3.828,3.005-5.833l44.895-63.632c1.296-2.002,2.533-3.711,3.712-5.125,1.177-1.414,2.237-2.591,3.182-3.535,1.061-1.176,2.002-2.121,2.828-2.828v-.354c-.826.119-1.768.238-2.828.354-.944.119-1.975.177-3.093.177h-40.565c-6.481,0-9.721-3.239-9.721-9.722v-7.07c0-6.479,3.239-9.721,9.721-9.721h76.004c6.479,0,9.722,3.182,9.722,9.545v2.828c0,2.357-.296,4.479-.884,6.363-.591,1.886-1.591,3.83-3.005,5.832l-45.072,63.984c-2.593,3.654-4.891,6.54-6.893,8.661-1.061,1.179-2.006,2.121-2.828,2.828v.354c.707,0,1.591-.058,2.651-.177.941-.116,2.002-.205,3.181-.266,1.177-.058,2.475-.088,3.889-.088h40.123c6.479,0,9.722,3.242,9.722,9.721v7.07c0,6.482-3.242,9.722-9.722,9.722h-79.185c-6.482,0-9.722-3.239-9.722-9.722v-3.004Z" style="fill: #1d1d1b; stroke: #1d1d1b; stroke-miterlimit: 10; stroke-width: 4px;"/>
      <path d="M348.253,11.721c0-6.479,3.239-9.721,9.721-9.721h11.489c6.479,0,9.722,3.242,9.722,9.721v40.83h45.955V11.721c0-6.479,3.24-9.721,9.722-9.721h11.489c6.479,0,9.721,3.242,9.721,9.721v106.936c0,6.482-3.242,9.722-9.721,9.722h-11.489c-6.481,0-9.722-3.239-9.722-9.722v-39.77h-45.955v39.77c0,6.482-3.242,9.722-9.722,9.722h-11.489c-6.481,0-9.721-3.239-9.721-9.722V11.721Z" style="fill: #1d1d1b; stroke: #1d1d1b; stroke-miterlimit: 10; stroke-width: 4px;"/>
    </g>
  </g>
</svg>